<svg width="32" height="32" viewBox="0 0 32 32" fill="none" xmlns="http://www.w3.org/2000/svg">
  <path fill-rule="evenodd" clip-rule="evenodd" d="M27.9999 7.0263L27.9614 11.4085L31.555 13.804C31.8545 14.0031 32.0115 14.3358 32 14.6707V28.239C32.0008 28.2617 32.0008 28.2845 32 28.3072V29.4959C32 30.8769 30.877 31.9999 29.496 31.9999H2.504C1.123 31.9999 4.74578e-10 30.8769 4.74578e-10 29.4959V28.2951C-0.00032593 28.2804 -0.000325112 28.2656 4.74578e-10 28.2509V14.6359V14.6356L0.000116644 14.62C0.000626284 14.5864 0.00281899 14.5531 0.00663547 14.5202C0.0201501 14.4031 0.0539185 14.2922 0.104344 14.1909C0.181126 14.0365 0.297658 13.9023 0.445117 13.804L4.09106 11.3736V2.349C4.09106 1.054 5.14506 7.42176e-09 6.44006 7.42176e-09H20.9779C21.08 -0.00225224 21.1823 0.0110782 21.2811 0.0399913C21.4526 0.090054 21.6049 0.184759 21.7246 0.310643L27.6987 6.28467L27.7101 6.296C27.7475 6.33365 27.7816 6.374 27.8122 6.41659C27.943 6.59789 28.0055 6.81281 27.9999 7.0263ZM30 16.5789V26.4498L22.6908 21.7986L30 16.5789ZM20.872 20.6399L20.871 20.6406L17.3419 18.3949C16.5259 17.8749 15.4729 17.8749 14.6579 18.3949L11.1272 20.6417L11.1261 20.641L6.09106 17.0443V2.349C6.09106 2.157 6.24806 2 6.44006 2H20.0001V7C20.0001 7.552 20.4471 8 21.0001 8H25.9911L25.9596 11.5935C25.8922 11.7954 25.8925 12.0107 25.9542 12.2081L25.9118 17.0404L20.872 20.6399ZM2 16.579L9.30871 21.7989L2 26.4498V16.579ZM2 29.4959V28.8212L15.7329 20.0829C15.8949 19.9789 16.1059 19.9789 16.2679 20.0829L30 28.8213V29.4959C30 29.7739 29.774 29.9999 29.496 29.9999H2.504C2.226 29.9999 2 29.7739 2 29.4959ZM22.0001 3.41407V6H24.586L22.0001 3.41407ZM29.239 14.664L27.9246 15.6028L27.9404 13.7984L29.239 14.664ZM4.09106 13.7777L2.76012 14.665L4.09106 15.6157V13.7777ZM10 8H16C16.552 8 17 7.552 17 7C17 6.448 16.552 6 16 6H10C9.448 6 9 6.448 9 7C9 7.552 9.448 8 10 8ZM10 12C9.448 12 9 11.552 9 11C9 10.448 9.448 10 10 10H22C22.553 10 23 10.448 23 11C23 11.552 22.553 12 22 12H10ZM9 15C9 15.552 9.448 16 10 16H22C22.553 16 23 15.552 23 15C23 14.448 22.553 14 22 14H10C9.448 14 9 14.448 9 15Z" fill="black"/>
</svg>
